<svg width="38" height="28" viewBox="0 0 38 28" fill="none" xmlns="http://www.w3.org/2000/svg">
<g clip-path="url(#clip0_1233_5308)">
<path d="M31.1813 2.28083C28.8938 1.22514 26.4409 0.447346 23.8762 0.00186752C23.8295 -0.00672692 23.7828 0.0147592 23.7588 0.0577314C23.4433 0.6221 23.0939 1.35836 22.8492 1.93705C20.0907 1.52165 17.3463 1.52165 14.6444 1.93705C14.3997 1.34546 14.0375 0.6221 13.7207 0.0577314C13.6966 0.0161916 13.6499 -0.00529451 13.6033 0.00186752C11.04 0.445914 8.58704 1.22371 6.29819 2.28083C6.27838 2.28942 6.26141 2.30375 6.25009 2.32237C1.59742 9.31394 0.322856 16.1336 0.948116 22.8688C0.950945 22.9018 0.969335 22.9333 0.994798 22.9533C4.06451 25.2208 7.03803 26.5974 9.95638 27.5098C10.0031 27.5241 10.0526 27.5069 10.0823 27.4683C10.7726 26.52 11.388 25.5202 11.9156 24.4688C11.9467 24.4072 11.917 24.3342 11.8534 24.3098C10.8773 23.9374 9.9479 23.4833 9.05386 22.9676C8.98313 22.9261 8.97747 22.8244 9.04254 22.7757C9.23069 22.6339 9.41883 22.4864 9.59848 22.3374C9.63102 22.3102 9.67629 22.3044 9.71448 22.3216C15.588 25.0188 21.9467 25.0188 27.7508 22.3216C27.789 22.303 27.8343 22.3087 27.8682 22.336C28.0479 22.4849 28.236 22.6339 28.4256 22.7757C28.4907 22.8244 28.4864 22.9261 28.4157 22.9676C27.5217 23.4933 26.5923 23.9374 25.6148 24.3084C25.5511 24.3327 25.5228 24.4072 25.5539 24.4688C26.0929 25.5188 26.7083 26.5186 27.3859 27.4668C27.4141 27.5069 27.4651 27.5241 27.5118 27.5098C30.4442 26.5974 33.4178 25.2208 36.4875 22.9533C36.5144 22.9333 36.5313 22.9032 36.5342 22.8702C37.2825 15.0837 35.2808 8.31985 31.2279 2.3238C31.218 2.30375 31.2011 2.28942 31.1813 2.28083ZM12.7927 18.7678C11.0244 18.7678 9.56736 17.1349 9.56736 15.1295C9.56736 13.1241 10.9961 11.4912 12.7927 11.4912C14.6034 11.4912 16.0463 13.1385 16.018 15.1295C16.018 17.1349 14.5892 18.7678 12.7927 18.7678ZM24.7179 18.7678C22.9496 18.7678 21.4926 17.1349 21.4926 15.1295C21.4926 13.1241 22.9213 11.4912 24.7179 11.4912C26.5286 11.4912 27.9715 13.1385 27.9432 15.1295C27.9432 17.1349 26.5286 18.7678 24.7179 18.7678Z" fill="black"/>
</g>
<defs>
<clipPath id="clip0_1233_5308">
<rect width="36.4" height="28" fill="white" transform="translate(0.799805)"/>
</clipPath>
</defs>
</svg>
