<svg preserveAspectRatio="none" width="100%" height="100%" overflow="visible" style="display: block;" viewBox="0 0 26.0807 19.9952" fill="none" xmlns="http://www.w3.org/2000/svg">
<path id="Symbol - Rounded" d="M22.0784 1.6575C20.4162 0.890321 18.6336 0.32509 16.7698 0.00135714C16.7359 -0.00488851 16.7019 0.0107256 16.6845 0.0419539C16.4552 0.452085 16.2013 0.987129 16.0235 1.40767C14.0188 1.1058 12.0245 1.1058 10.061 1.40767C9.88314 0.97776 9.61997 0.452085 9.3897 0.0419539C9.37222 0.0117666 9.3383 -0.00384756 9.30437 0.00135714C7.44162 0.324049 5.65904 0.88928 3.99572 1.6575C3.98133 1.66374 3.96899 1.67415 3.96077 1.68768C0.579636 6.76852 -0.346602 11.7244 0.107779 16.6189C0.109835 16.6429 0.123199 16.6658 0.141703 16.6804C2.37249 18.3282 4.53337 19.3285 6.65416 19.9916C6.68808 20.002 6.72406 19.9895 6.74565 19.9614C7.24732 19.2723 7.69451 18.5457 8.07795 17.7817C8.10057 17.7369 8.07898 17.6838 8.03272 17.6661C7.32339 17.3955 6.64799 17.0655 5.99829 16.6908C5.94689 16.6606 5.94277 16.5867 5.99006 16.5513C6.12679 16.4482 6.26351 16.341 6.39407 16.2328C6.41772 16.213 6.45061 16.2088 6.47837 16.2213C10.7467 18.1814 15.3676 18.1814 19.5855 16.2213C19.6133 16.2078 19.6462 16.2119 19.6708 16.2317C19.8014 16.34 19.9381 16.4482 20.0759 16.5513C20.1232 16.5867 20.1201 16.6606 20.0687 16.6908C19.419 17.0728 18.7436 17.3955 18.0332 17.6651C17.987 17.6828 17.9664 17.7369 17.989 17.7817C18.3807 18.5447 18.8279 19.2713 19.3203 19.9604C19.3409 19.9895 19.3779 20.002 19.4118 19.9916C21.5429 19.3285 23.7037 18.3282 25.9345 16.6804C25.9541 16.6658 25.9664 16.6439 25.9684 16.62C26.5123 10.9614 25.0576 6.0461 22.1124 1.68872C22.1052 1.67415 22.0928 1.66374 22.0784 1.6575ZM8.71532 13.6387C7.43031 13.6387 6.37145 12.4521 6.37145 10.9947C6.37145 9.53742 7.40975 8.35075 8.71532 8.35075C10.0312 8.35075 11.0797 9.54783 11.0592 10.9947C11.0592 12.4521 10.0209 13.6387 8.71532 13.6387ZM17.3815 13.6387C16.0964 13.6387 15.0376 12.4521 15.0376 10.9947C15.0376 9.53742 16.0759 8.35075 17.3815 8.35075C18.6973 8.35075 19.7459 9.54783 19.7253 10.9947C19.7253 12.4521 18.6973 13.6387 17.3815 13.6387Z" fill="var(--fill-0, black)"/>
</svg>
