<svg preserveAspectRatio="none" width="100%" height="100%" overflow="visible" style="display: block;" viewBox="0 0 35.8889 27.5148" fill="none" xmlns="http://www.w3.org/2000/svg">
<path id="Symbol - Rounded" d="M30.3815 2.28083C28.094 1.22514 25.6411 0.447346 23.0764 0.00186752C23.0297 -0.00672692 22.983 0.0147592 22.959 0.0577314C22.6435 0.6221 22.2941 1.35836 22.0494 1.93705C19.2909 1.52165 16.5465 1.52165 13.8446 1.93705C13.5999 1.34546 13.2377 0.6221 12.9209 0.0577314C12.8968 0.0161916 12.8501 -0.00529451 12.8035 0.00186752C10.2402 0.445914 7.78723 1.22371 5.49838 2.28083C5.47858 2.28942 5.4616 2.30374 5.45029 2.32237C0.797619 9.31394 -0.476949 16.1336 0.148311 22.8688C0.15114 22.9018 0.16953 22.9333 0.194993 22.9533C3.26471 25.2208 6.23823 26.5974 9.15658 27.5098C9.20326 27.5241 9.25277 27.5069 9.28248 27.4683C9.97281 26.52 10.5882 25.5202 11.1158 24.4688C11.1469 24.4072 11.1172 24.3342 11.0536 24.3098C10.0775 23.9374 9.14809 23.4833 8.25405 22.9676C8.18332 22.9261 8.17766 22.8244 8.24274 22.7757C8.43088 22.6339 8.61902 22.4864 8.79868 22.3374C8.83122 22.3102 8.87648 22.3044 8.91468 22.3216C14.7882 25.0188 21.1469 25.0188 26.951 22.3216C26.9892 22.303 27.0345 22.3087 27.0684 22.336C27.2481 22.4849 27.4362 22.6339 27.6258 22.7757C27.6909 22.8244 27.6866 22.9261 27.6159 22.9676C26.7218 23.4933 25.7924 23.9374 24.8149 24.3084C24.7513 24.3327 24.723 24.4072 24.7541 24.4688C25.2931 25.5188 25.9084 26.5186 26.586 27.4668C26.6143 27.5069 26.6653 27.5241 26.7119 27.5098C29.6444 26.5974 32.618 25.2208 35.6877 22.9533C35.7146 22.9333 35.7315 22.9032 35.7344 22.8702C36.4827 15.0837 34.481 8.31985 30.4281 2.3238C30.4182 2.30374 30.4013 2.28942 30.3815 2.28083ZM11.9929 18.7678C10.2246 18.7678 8.76756 17.1349 8.76756 15.1295C8.76756 13.1241 10.1963 11.4912 11.9929 11.4912C13.8036 11.4912 15.2465 13.1385 15.2182 15.1295C15.2182 17.1349 13.7894 18.7678 11.9929 18.7678ZM23.9181 18.7678C22.1498 18.7678 20.6928 17.1349 20.6928 15.1295C20.6928 13.1241 22.1215 11.4912 23.9181 11.4912C25.7288 11.4912 27.1717 13.1385 27.1434 15.1295C27.1434 17.1349 25.7288 18.7678 23.9181 18.7678Z" fill="var(--fill-0, white)"/>
</svg>
