<svg preserveAspectRatio="none" width="100%" height="100%" overflow="visible" style="display: block;" viewBox="0 0 33.6 33.5933" fill="none" xmlns="http://www.w3.org/2000/svg">
<g id="Group">
<path id="Vector" d="M16.7933 3.02666C21.28 3.02666 21.8067 3.04666 23.58 3.12666C25.22 3.2 26.1067 3.47333 26.7 3.70666C27.4867 4.01333 28.0467 4.37333 28.6333 4.95999C29.22 5.54666 29.5867 6.10666 29.8867 6.89333C30.1133 7.48666 30.3933 8.37332 30.4667 10.0133C30.5467 11.7867 30.5667 12.3133 30.5667 16.8C30.5667 21.2866 30.5467 21.8133 30.4667 23.5866C30.3933 25.2266 30.12 26.1133 29.8867 26.7066C29.58 27.4933 29.22 28.0533 28.6333 28.64C28.0467 29.2266 27.4867 29.5933 26.7 29.8933C26.1067 30.12 25.22 30.4 23.58 30.4733C21.8067 30.5533 21.28 30.5733 16.7933 30.5733C12.3067 30.5733 11.78 30.5533 10.0067 30.4733C8.36667 30.4 7.48 30.1266 6.88667 29.8933C6.1 29.5866 5.54 29.2266 4.95333 28.64C4.36667 28.0533 4 27.4933 3.7 26.7066C3.47333 26.1133 3.19333 25.2266 3.12 23.5866C3.04 21.8133 3.02 21.2866 3.02 16.8C3.02 12.3133 3.04 11.7867 3.12 10.0133C3.19333 8.37332 3.46667 7.48666 3.7 6.89333C4.00667 6.10666 4.36667 5.54666 4.95333 4.95999C5.54 4.37333 6.1 4.00666 6.88667 3.70666C7.48 3.48 8.36667 3.2 10.0067 3.12666C11.78 3.04 12.3133 3.02666 16.7933 3.02666ZM16.7933 0C12.2333 0 11.66 0.02 9.86667 0.0999999C8.08 0.18 6.86 0.466666 5.79333 0.879999C4.68667 1.30667 3.75333 1.88666 2.82 2.82C1.88667 3.75333 1.31333 4.69333 0.88 5.79333C0.466667 6.85999 0.18 8.07999 0.1 9.87332C0.02 11.66 0 12.2333 0 16.7933C0 21.3533 0.02 21.9266 0.1 23.72C0.18 25.5066 0.466667 26.7266 0.88 27.8C1.30667 28.9066 1.88667 29.84 2.82 30.7733C3.75333 31.7066 4.69333 32.28 5.79333 32.7133C6.86 33.1266 8.08 33.4133 9.87333 33.4933C11.6667 33.5733 12.2333 33.5933 16.8 33.5933C21.3667 33.5933 21.9333 33.5733 23.7267 33.4933C25.5133 33.4133 26.7333 33.1266 27.8067 32.7133C28.9133 32.2866 29.8467 31.7066 30.78 30.7733C31.7133 29.84 32.2867 28.9 32.72 27.8C33.1333 26.7333 33.42 25.5133 33.5 23.72C33.58 21.9266 33.6 21.36 33.6 16.7933C33.6 12.2267 33.58 11.66 33.5 9.86666C33.42 8.07999 33.1333 6.85999 32.72 5.78666C32.2933 4.68 31.7133 3.74666 30.78 2.81333C29.8467 1.88 28.9067 1.30667 27.8067 0.873332C26.74 0.46 25.52 0.173333 23.7267 0.0933332C21.9267 0.02 21.3533 0 16.7933 0Z" fill="var(--fill-0, white)"/>
<path id="Vector_2" d="M16.7937 8.17788C12.0338 8.17788 8.16709 12.0379 8.16709 16.8045C8.16709 21.5712 12.0271 25.4312 16.7937 25.4312C21.5604 25.4312 25.4204 21.5712 25.4204 16.8045C25.4204 12.0379 21.5604 8.17788 16.7937 8.17788ZM16.7937 22.3979C13.7004 22.3979 11.1938 19.8912 11.1938 16.7979C11.1938 13.7045 13.7004 11.1979 16.7937 11.1979C19.8871 11.1979 22.3937 13.7045 22.3937 16.7979C22.3937 19.8912 19.8871 22.3979 16.7937 22.3979Z" fill="var(--fill-0, white)"/>
<path id="Vector_3" d="M25.7595 9.83658C26.8715 9.83658 27.7729 8.93518 27.7729 7.82324C27.7729 6.71131 26.8715 5.80991 25.7595 5.80991C24.6476 5.80991 23.7462 6.71131 23.7462 7.82324C23.7462 8.93518 24.6476 9.83658 25.7595 9.83658Z" fill="var(--fill-0, white)"/>
</g>
</svg>
