<svg preserveAspectRatio="none" width="100%" height="100%" overflow="visible" style="display: block;" viewBox="0 0 24.4174 24.4125" fill="none" xmlns="http://www.w3.org/2000/svg">
<g id="Group">
<path id="Vector" d="M12.2039 2.1995C15.4643 2.1995 15.8471 2.21403 17.1358 2.27217C18.3276 2.32546 18.9719 2.5241 19.4031 2.69366C19.9748 2.91652 20.3817 3.17813 20.8081 3.60447C21.2344 4.0308 21.5009 4.43776 21.7189 5.00944C21.8836 5.44062 22.0871 6.08496 22.1404 7.27676C22.1985 8.56546 22.213 8.94819 22.213 12.2087C22.213 15.4692 22.1985 15.8519 22.1404 17.1406C22.0871 18.3324 21.8884 18.9767 21.7189 19.4079C21.496 19.9796 21.2344 20.3866 20.8081 20.8129C20.3817 21.2392 19.9748 21.5057 19.4031 21.7237C18.9719 21.8884 18.3276 22.0919 17.1358 22.1452C15.8471 22.2033 15.4643 22.2179 12.2039 22.2179C8.94335 22.2179 8.56062 22.2033 7.27193 22.1452C6.08012 22.0919 5.43578 21.8933 5.0046 21.7237C4.43292 21.5008 4.02596 21.2392 3.59963 20.8129C3.17329 20.3866 2.90683 19.9796 2.68882 19.4079C2.5241 18.9767 2.32062 18.3324 2.26733 17.1406C2.20919 15.8519 2.19466 15.4692 2.19466 12.2087C2.19466 8.94819 2.20919 8.56546 2.26733 7.27676C2.32062 6.08496 2.51925 5.44062 2.68882 5.00944C2.91168 4.43776 3.17329 4.0308 3.59963 3.60447C4.02596 3.17813 4.43292 2.91167 5.0046 2.69366C5.43578 2.52894 6.08012 2.32546 7.27193 2.27217C8.56062 2.20919 8.9482 2.1995 12.2039 2.1995ZM12.2039 0C8.89006 0 8.47342 0.0145341 7.17019 0.0726707C5.8718 0.130807 4.98522 0.33913 4.21006 0.639502C3.40584 0.949564 2.72758 1.37105 2.04932 2.04931C1.37106 2.72757 0.95441 3.41068 0.639503 4.21006C0.33913 4.98521 0.130807 5.87179 0.0726708 7.17502C0.0145342 8.47341 0 8.89005 0 12.2038C0 15.5176 0.0145342 15.9343 0.0726708 17.2375C0.130807 18.5359 0.33913 19.4225 0.639503 20.2025C0.949565 21.0067 1.37106 21.6849 2.04932 22.3632C2.72758 23.0415 3.41068 23.4581 4.21006 23.773C4.98522 24.0734 5.8718 24.2817 7.17503 24.3398C8.47826 24.398 8.89006 24.4125 12.2087 24.4125C15.5273 24.4125 15.9391 24.398 17.2424 24.3398C18.5407 24.2817 19.4273 24.0734 20.2073 23.773C21.0116 23.463 21.6898 23.0415 22.3681 22.3632C23.0463 21.6849 23.463 21.0018 23.7779 20.2025C24.0783 19.4273 24.2866 18.5407 24.3447 17.2375C24.4029 15.9343 24.4174 15.5225 24.4174 12.2038C24.4174 8.88521 24.4029 8.47341 24.3447 7.17018C24.2866 5.87179 24.0783 4.98521 23.7779 4.20521C23.4678 3.40099 23.0463 2.72273 22.3681 2.04447C21.6898 1.36621 21.0067 0.949564 20.2073 0.634658C19.4322 0.334285 18.5456 0.125963 17.2424 0.067826C15.9343 0.0145341 15.5176 0 12.2039 0Z" fill="var(--fill-0, black)"/>
<path id="Vector_2" d="M12.2042 5.94305C8.74502 5.94305 5.93509 8.74814 5.93509 12.2121C5.93509 15.6761 8.74018 18.4812 12.2042 18.4812C15.6681 18.4812 18.4732 15.6761 18.4732 12.2121C18.4732 8.74814 15.6681 5.94305 12.2042 5.94305ZM12.2042 16.2768C9.9562 16.2768 8.13459 14.4552 8.13459 12.2073C8.13459 9.95932 9.9562 8.13771 12.2042 8.13771C14.4521 8.13771 16.2737 9.95932 16.2737 12.2073C16.2737 14.4552 14.4521 16.2768 12.2042 16.2768Z" fill="var(--fill-0, black)"/>
<path id="Vector_3" d="M18.7197 7.1483C19.5277 7.1483 20.1828 6.49325 20.1828 5.68519C20.1828 4.87714 19.5277 4.22209 18.7197 4.22209C17.9116 4.22209 17.2565 4.87714 17.2565 5.68519C17.2565 6.49325 17.9116 7.1483 18.7197 7.1483Z" fill="var(--fill-0, black)"/>
</g>
</svg>
