<svg width="34" height="34" viewBox="0 0 34 34" fill="none" xmlns="http://www.w3.org/2000/svg">
<path d="M16.993 3.23028C21.4797 3.23028 22.0064 3.25028 23.7797 3.33028C25.4197 3.40361 26.3064 3.67694 26.8997 3.91028C27.6864 4.21694 28.2464 4.57694 28.833 5.16361C29.4197 5.75027 29.7864 6.31027 30.0864 7.09694C30.313 7.69027 30.593 8.57694 30.6664 10.2169C30.7464 11.9903 30.7664 12.5169 30.7664 17.0036C30.7664 21.4903 30.7464 22.0169 30.6664 23.7903C30.593 25.4303 30.3197 26.3169 30.0864 26.9103C29.7797 27.6969 29.4197 28.2569 28.833 28.8436C28.2464 29.4303 27.6864 29.7969 26.8997 30.0969C26.3064 30.3236 25.4197 30.6036 23.7797 30.6769C22.0064 30.7569 21.4797 30.7769 16.993 30.7769C12.5064 30.7769 11.9797 30.7569 10.2064 30.6769C8.56637 30.6036 7.67971 30.3302 7.08637 30.0969C6.29971 29.7902 5.73971 29.4303 5.15304 28.8436C4.56637 28.2569 4.19971 27.6969 3.89971 26.9103C3.67304 26.3169 3.39304 25.4303 3.31971 23.7903C3.23971 22.0169 3.21971 21.4903 3.21971 17.0036C3.21971 12.5169 3.23971 11.9903 3.31971 10.2169C3.39304 8.57694 3.66637 7.69027 3.89971 7.09694C4.20637 6.31027 4.56637 5.75027 5.15304 5.16361C5.73971 4.57694 6.29971 4.21028 7.08637 3.91028C7.67971 3.68361 8.56637 3.40361 10.2064 3.33028C11.9797 3.24361 12.513 3.23028 16.993 3.23028ZM16.993 0.203613C12.433 0.203613 11.8597 0.223613 10.0664 0.303613C8.27971 0.383613 7.05971 0.670279 5.99304 1.08361C4.88637 1.51028 3.95304 2.09028 3.01971 3.02361C2.08637 3.95694 1.51304 4.89694 1.07971 5.99694C0.666374 7.06361 0.379707 8.28361 0.299707 10.0769C0.219707 11.8636 0.199707 12.4369 0.199707 16.9969C0.199707 21.5569 0.219707 22.1303 0.299707 23.9236C0.379707 25.7103 0.666374 26.9303 1.07971 28.0036C1.50637 29.1102 2.08637 30.0436 3.01971 30.9769C3.95304 31.9102 4.89304 32.4836 5.99304 32.9169C7.05971 33.3302 8.27971 33.6169 10.073 33.6969C11.8664 33.7769 12.433 33.7969 16.9997 33.7969C21.5664 33.7969 22.133 33.7769 23.9264 33.6969C25.713 33.6169 26.933 33.3302 28.0064 32.9169C29.113 32.4902 30.0464 31.9102 30.9797 30.9769C31.913 30.0436 32.4864 29.1036 32.9197 28.0036C33.333 26.9369 33.6197 25.7169 33.6997 23.9236C33.7797 22.1303 33.7997 21.5636 33.7997 16.9969C33.7997 12.4303 33.7797 11.8636 33.6997 10.0703C33.6197 8.2836 33.333 7.06361 32.9197 5.99027C32.493 4.88361 31.913 3.95028 30.9797 3.01694C30.0464 2.08361 29.1064 1.51028 28.0064 1.07695C26.9397 0.663613 25.7197 0.376946 23.9264 0.296947C22.1264 0.223613 21.553 0.203613 16.993 0.203613Z" fill="black"/>
<path d="M16.9934 8.38135C12.2334 8.38135 8.3667 12.2413 8.3667 17.008C8.3667 21.7747 12.2267 25.6347 16.9934 25.6347C21.76 25.6347 25.62 21.7747 25.62 17.008C25.62 12.2413 21.76 8.38135 16.9934 8.38135ZM16.9934 22.6013C13.9 22.6013 11.3934 20.0947 11.3934 17.0013C11.3934 13.908 13.9 11.4013 16.9934 11.4013C20.0867 11.4013 22.5934 13.908 22.5934 17.0013C22.5934 20.0947 20.0867 22.6013 16.9934 22.6013Z" fill="black"/>
<path d="M25.9591 10.0403C27.0711 10.0403 27.9725 9.13894 27.9725 8.027C27.9725 6.91507 27.0711 6.01367 25.9591 6.01367C24.8472 6.01367 23.9458 6.91507 23.9458 8.027C23.9458 9.13894 24.8472 10.0403 25.9591 10.0403Z" fill="black"/>
</svg>
