<svg preserveAspectRatio="none" width="100%" height="100%" overflow="visible" style="display: block;" viewBox="0 0 51.057 51.5852" fill="none" xmlns="http://www.w3.org/2000/svg">
<g id="Group 1321319362">
<g id="Vector" filter="url(#filter0_d_0_21)">
<path d="M19.3674 37.5389C22.23 39.0073 25.5229 39.405 28.6527 38.6604C31.7825 37.9158 34.5435 36.0778 36.4381 33.4776C38.3327 30.8774 39.2363 27.6861 38.9861 24.4786C38.7358 21.2712 37.3482 18.2586 35.0733 15.9837C32.7984 13.7088 29.7858 12.3212 26.5784 12.071C23.3709 11.8207 20.1796 12.7243 17.5794 14.6189C14.9792 16.5135 13.1412 19.2745 12.3966 22.4043C11.652 25.5341 12.0497 28.827 13.5181 31.6896L12.3967 39.5552L19.3674 37.5389Z" fill="var(--fill-0, white)" fill-opacity="0.18" shape-rendering="crispEdges"/>
<path d="M17.2966 14.2312C19.9893 12.2693 23.2945 11.3334 26.616 11.5925C29.9374 11.8517 33.0571 13.2886 35.4129 15.6443C37.7686 18 39.2055 21.1198 39.4646 24.4412C39.7237 27.7627 38.7879 31.0679 36.8259 33.7605C34.864 36.453 32.0045 38.3566 28.7634 39.1277C25.5857 39.8836 22.2472 39.499 19.324 38.0506L12.53 40.0164C12.3736 40.0616 12.2047 40.0245 12.0818 39.9177C11.9589 39.8109 11.8987 39.6483 11.9216 39.4871L13.0213 31.7654C11.5597 28.8345 11.1707 25.4822 11.9295 22.2927C12.7006 19.0518 14.6042 16.1931 17.2966 14.2312Z" stroke="url(#paint0_linear_0_21)" stroke-width="0.959889" stroke-linecap="round" stroke-linejoin="round" shape-rendering="crispEdges"/>
</g>
<g id="Vector_2">
<path d="M31.7326 27.6604C31.7326 30.4586 28.8399 32.061 25.4257 31.7993C21.8929 31.9182 19.1188 30.7202 19.1188 27.922C19.1188 25.1238 22.0342 21.6661 25.4257 21.6661C28.8172 21.6661 31.7326 24.8622 31.7326 27.6604Z" fill="var(--fill-0, white)"/>
<path d="M21.6666 21.0722C22.3388 21.4471 23.0332 22.2389 23.0332 22.2389C22.1681 22.6855 21.73 23.0356 20.969 23.7827C20.3882 24.4394 20.0477 24.8944 19.5172 26.0201C19.5172 26.0201 18.8204 24.1993 18.8734 23.1172C18.9263 22.037 19.5339 20.4284 19.5339 20.4284C19.5339 20.4284 20.9064 20.6482 21.6666 21.0722Z" fill="var(--fill-0, white)"/>
<path d="M29.2729 21.0722C28.6007 21.4471 27.9063 22.2389 27.9063 22.2389C28.7714 22.6855 29.2269 23.0157 29.9878 23.7628C30.5686 24.4195 30.8921 24.8921 31.4225 26.0178C31.4225 26.0178 32.1191 24.1993 32.0661 23.1172C32.0132 22.037 31.4056 20.4284 31.4056 20.4284C31.4056 20.4284 30.0331 20.6482 29.2729 21.0722Z" fill="var(--fill-0, white)"/>
<path d="M31.5189 20.3854L31.5199 20.3864C31.5202 20.3872 31.5203 20.3888 31.5209 20.3903C31.5221 20.3935 31.5235 20.3988 31.5258 20.405C31.5303 20.4173 31.5379 20.4355 31.5463 20.4587C31.5632 20.5053 31.5876 20.5727 31.6166 20.6569C31.6748 20.8259 31.7525 21.063 31.8324 21.3337C31.9914 21.8723 32.1597 22.5558 32.1869 23.111C32.2145 23.6737 32.049 24.4159 31.8813 25.0065C31.7967 25.3041 31.7099 25.5676 31.6449 25.7565C31.6125 25.8508 31.5859 25.9268 31.5668 25.9792C31.5613 25.9941 31.5562 26.0072 31.5522 26.0182C31.7474 26.5621 31.8539 27.118 31.8539 27.6608C31.8538 29.1077 31.1037 30.2439 29.9242 30.9802C28.7483 31.7141 27.145 32.0523 25.4193 31.9206C23.6453 31.979 22.0476 31.7083 20.8881 31.0602C19.7195 30.407 18.9975 29.3698 18.9975 27.9216C18.9975 27.3021 19.1359 26.6538 19.3871 26.0182C19.3832 26.0077 19.3786 25.9952 19.3734 25.9811C19.3543 25.9287 19.3268 25.8528 19.2943 25.7585C19.2293 25.5694 19.1435 25.3054 19.059 25.0075C18.8912 24.4163 18.7248 23.6737 18.7523 23.111C18.7796 22.5559 18.9479 21.8723 19.1068 21.3337C19.1867 21.063 19.2654 20.8259 19.3236 20.6569C19.3527 20.5727 19.377 20.5053 19.3939 20.4587C19.4023 20.4355 19.4089 20.4173 19.4135 20.405C19.4158 20.3988 19.4172 20.3935 19.4184 20.3903C19.4189 20.3888 19.42 20.3872 19.4203 20.3864V20.3854L19.4555 20.2927L19.5531 20.3083H19.5541C19.5548 20.3084 19.5559 20.3091 19.557 20.3093C19.5598 20.3097 19.5645 20.3103 19.5697 20.3112C19.5803 20.313 19.5959 20.3156 19.6156 20.319C19.6553 20.326 19.7127 20.3365 19.7836 20.3503C19.9256 20.3778 20.1228 20.4188 20.3441 20.4733C20.7841 20.5817 21.3309 20.7462 21.726 20.9665C22.0754 21.1614 22.4261 21.4608 22.6859 21.7077C22.8166 21.8319 22.9256 21.9447 23.0023 22.0261C23.0257 22.0508 23.0458 22.073 23.0629 22.0915C23.7986 21.7474 24.5967 21.5447 25.4252 21.5446C26.2859 21.5446 27.1154 21.7462 27.8754 22.0915C27.8925 22.0729 27.9133 22.051 27.9369 22.0261C28.0137 21.9447 28.1236 21.8319 28.2543 21.7077C28.5142 21.4608 28.8649 21.1613 29.2143 20.9665C29.6093 20.7462 30.1553 20.5817 30.5951 20.4733C30.8164 20.4188 31.0137 20.3778 31.1557 20.3503C31.2267 20.3365 31.285 20.326 31.3246 20.319C31.344 20.3156 31.3591 20.313 31.3695 20.3112C31.3748 20.3103 31.3795 20.3097 31.3822 20.3093C31.3835 20.3091 31.3845 20.3084 31.3852 20.3083H31.3861L31.4838 20.2927L31.5189 20.3854Z" stroke="var(--stroke-0, white)" stroke-opacity="0.24" stroke-width="0.242852"/>
</g>
</g>
<defs>
<filter id="filter0_d_0_21" x="5.96046e-08" y="-1.19209e-07" width="51.057" height="51.5852" filterUnits="userSpaceOnUse" color-interpolation-filters="sRGB">
<feFlood flood-opacity="0" result="BackgroundImageFix"/>
<feColorMatrix in="SourceAlpha" type="matrix" values="0 0 0 0 0 0 0 0 0 0 0 0 0 0 0 0 0 0 127 0" result="hardAlpha"/>
<feOffset/>
<feGaussianBlur stdDeviation="5.53508"/>
<feComposite in2="hardAlpha" operator="out"/>
<feColorMatrix type="matrix" values="0 0 0 0 0 0 0 0 0 0 0 0 0 0 0.117647 0 0 0 0.15 0"/>
<feBlend mode="normal" in2="BackgroundImageFix" result="effect1_dropShadow_0_21"/>
<feBlend mode="normal" in="SourceGraphic" in2="effect1_dropShadow_0_21" result="shape"/>
</filter>
<linearGradient id="paint0_linear_0_21" x1="24.7728" y1="12.03" x2="24.7728" y2="40.5385" gradientUnits="userSpaceOnUse">
<stop stop-color="white" stop-opacity="0.4"/>
<stop offset="0.32" stop-color="white" stop-opacity="0.25"/>
<stop offset="0.72" stop-color="white" stop-opacity="0.2"/>
<stop offset="1" stop-color="white" stop-opacity="0.32"/>
</linearGradient>
</defs>
</svg>
