<svg preserveAspectRatio="none" width="100%" height="100%" overflow="visible" style="display: block;" viewBox="0 0 107 16" fill="none" xmlns="http://www.w3.org/2000/svg">
<g id="&#236;&#130;&#188;&#235;&#131;&#165;&#236;&#157;&#180;&#236;&#166;&#136; &#235;&#161;&#156;&#234;&#179;&#160;">
<path id="Polygon 33" d="M2.3237 1.32791C2.4121 1.22184 2.57378 1.22538 2.65722 1.3354C2.8611 1.60425 3.20899 2.08062 3.41131 2.45648C3.59793 2.80317 3.78999 3.30452 3.90284 3.61682C3.95385 3.75799 3.84929 3.90453 3.69919 3.90524C3.39187 3.9067 2.90504 3.90782 2.49519 3.90337C2.07715 3.89883 1.48985 3.8744 1.13483 3.85812C0.983312 3.85117 0.885159 3.69748 0.945033 3.55812C1.07404 3.25785 1.28785 2.78406 1.48519 2.45648C1.71489 2.07518 2.10134 1.59471 2.3237 1.32791Z" fill="var(--fill-0, #FF6161)"/>
<path id="Polygon 34" d="M8.42095 1.33377C8.33254 1.2277 8.17086 1.23124 8.08742 1.34126C7.88354 1.61011 7.53565 2.08648 7.33334 2.46234C7.14671 2.80903 6.95466 3.31038 6.84181 3.62268C6.7908 3.76385 6.89536 3.91039 7.04545 3.9111C7.35277 3.91256 7.8396 3.91368 8.24945 3.90922C8.66749 3.90469 9.25479 3.88026 9.60981 3.86398C9.76133 3.85703 9.85948 3.70334 9.79961 3.56398C9.6706 3.26371 9.4568 2.78992 9.25945 2.46234C9.02976 2.08104 8.64331 1.60057 8.42095 1.33377Z" fill="var(--fill-0, #FF6161)"/>
<rect id="Rectangle 48781" x="0.926619" y="3.6293" width="8.8917" height="2.43161" fill="var(--fill-0, #FF6161)"/>
<rect id="Rectangle 48782" x="0.926619" y="9.29336" width="3.23249" height="2.43161" transform="rotate(-90 0.926619 9.29336)" fill="var(--fill-0, #FF6161)"/>
<rect id="Rectangle 48781_2" width="8.8917" height="2.43171" transform="matrix(1 0 0 -1 0.9274 14.541)" fill="var(--fill-0, #FF6161)"/>
<rect id="Rectangle 48782_2" width="3.23249" height="2.4318" transform="matrix(0 1 1 0 7.38678 8.87695)" fill="var(--fill-0, #FF6161)"/>
<g id="Group 1000002478">
<g id="am">
<path d="M33.5247 7.10786V13.4231C33.5247 14.2809 33.0136 14.7555 32.1558 14.7555C31.3892 14.7555 31.0059 14.2627 30.8964 13.6238C30.5131 14.4087 29.6553 14.9197 28.3411 14.9197C25.9866 14.9197 24.4169 12.8573 24.4169 10.1925C24.4169 7.52766 25.9866 5.53818 28.2498 5.53818C29.564 5.53818 30.4583 6.04924 30.8964 6.76107C30.9877 6.1405 31.3892 5.6842 32.174 5.6842C33.0319 5.6842 33.5247 6.25001 33.5247 7.10786ZM27.1182 10.229C27.1182 11.6344 27.8848 12.6565 29.0164 12.6565C30.1481 12.6565 30.8781 11.6344 30.8781 10.229C30.8781 8.82355 30.1481 7.80144 29.0164 7.80144C27.8848 7.80144 27.1182 8.82355 27.1182 10.229Z" fill="var(--fill-0, #FF6161)"/>
<path d="M45.5779 13.3683V9.2616C45.5779 8.47676 45.0486 7.85619 44.2272 7.85619C43.4059 7.85619 42.8766 8.45851 42.8766 9.40762V13.3683C42.8766 14.2262 42.4203 14.7555 41.5624 14.7555C40.7046 14.7555 40.23 14.2262 40.23 13.3683V9.2616C40.23 8.47676 39.7007 7.85619 38.8794 7.85619C38.058 7.85619 37.5287 8.45851 37.5287 9.40762V13.3683C37.5287 14.2262 37.0359 14.7555 36.1781 14.7555C35.3202 14.7555 34.8092 14.2262 34.8092 13.3683V7.08961C34.8092 6.15875 35.3385 5.6842 36.1598 5.6842C36.9447 5.6842 37.4375 6.28652 37.4922 6.94359C37.912 6.08574 38.6969 5.53818 39.938 5.53818C41.1426 5.53818 41.8727 6.23176 42.1648 7.14436C42.7853 6.06749 43.8257 5.53818 45.2128 5.53818C46.892 5.53818 48.2974 6.43253 48.2974 8.62278V13.3683C48.2974 14.2262 47.7864 14.7555 46.9285 14.7555C46.0524 14.7555 45.5779 14.2262 45.5779 13.3683Z" fill="var(--fill-0, #FF6161)"/>
</g>
<path id="S" d="M18.2591 2.43486C20.1011 2.43493 21.5273 2.93638 22.4368 3.86162C22.7459 4.17072 22.9517 4.53059 23.0052 4.88213C23.0588 5.23483 22.9595 5.57859 22.6624 5.85088C22.3814 6.11511 22.0381 6.18513 21.6849 6.11943C21.3763 6.06203 21.0597 5.90128 20.7679 5.67705L20.6448 5.57744C19.9551 4.99998 19.2834 4.66436 18.2103 4.66436C17.7446 4.66436 17.3064 4.73235 16.9857 4.9124C16.6669 5.09145 16.4623 5.38175 16.4622 5.83135C16.4622 6.26522 16.6547 6.5648 16.9573 6.78643C17.2616 7.00915 17.6773 7.15288 18.1204 7.27373L20.3616 7.88701C21.3714 8.16166 22.155 8.53397 22.6859 9.08916C23.2175 9.64526 23.4935 10.3822 23.4935 11.3792C23.4934 12.3877 23.0254 13.2742 22.1829 13.9075C21.3408 14.5406 20.125 14.9202 18.6292 14.9202C16.6574 14.9201 14.8427 14.2576 13.8685 13.0237C13.6003 12.6906 13.4281 12.3227 13.4075 11.9749C13.3869 11.6258 13.5193 11.2991 13.8568 11.0521C14.2011 10.7979 14.556 10.7311 14.9027 10.8157C15.2481 10.9001 15.5826 11.1341 15.8909 11.4749C16.627 12.291 17.7009 12.6917 18.7913 12.6917C19.3035 12.6916 19.8023 12.5716 20.1722 12.347C20.5417 12.1225 20.7805 11.7949 20.7806 11.3792C20.7806 11.0208 20.6932 10.7528 20.5111 10.5472C20.3739 10.3925 20.1814 10.2716 19.928 10.1731L19.6546 10.0813L16.9944 9.35576C16.1048 9.11312 15.3092 8.72021 14.7366 8.15166C14.1637 7.5826 13.8138 6.83806 13.8138 5.8958C13.8139 4.70206 14.3308 3.83594 15.1458 3.26885C15.9598 2.70249 17.0705 2.43486 18.2591 2.43486Z" fill="var(--fill-0, #FF6161)" stroke="var(--stroke-0, #FF6161)" stroke-width="0.0518898"/>
<g id="eows">
<path d="M67.8701 9.11559H71.7031C71.7031 8.25774 70.8087 7.60067 69.7866 7.60067C68.7645 7.60067 67.8701 8.25774 67.8701 9.11559ZM73.51 13.8064C72.6704 14.5912 71.4293 14.9197 70.0421 14.9197C66.9575 14.9197 65.2966 12.9485 65.2966 10.1742C65.2966 7.49115 67.0488 5.53818 69.7866 5.53818C72.5792 5.53818 74.1671 7.4364 74.1671 9.46238C74.1671 10.4662 73.8203 10.9225 72.8164 10.9225H67.8701C67.8701 11.9447 68.8192 12.8025 70.0421 12.8025C70.9912 12.8025 71.5753 12.474 72.1594 11.9994C72.6704 11.5614 73.4188 11.5431 73.8568 12.0724C74.3131 12.5835 74.0576 13.2953 73.51 13.8064Z" fill="var(--fill-0, #FF6161)"/>
<path d="M77.4374 10.229C77.4374 11.5249 78.1309 12.6565 79.3721 12.6565C80.595 12.6565 81.3068 11.5249 81.3068 10.229C81.3068 8.93307 80.595 7.80144 79.3721 7.80144C78.1309 7.80144 77.4374 8.93307 77.4374 10.229ZM74.7178 10.229C74.7178 7.39989 76.543 5.53818 79.3721 5.53818C82.2011 5.53818 84.0263 7.39989 84.0263 10.229C84.0263 13.058 82.2011 14.9197 79.3721 14.9197C76.543 14.9197 74.7178 13.058 74.7178 10.229Z" fill="var(--fill-0, #FF6161)"/>
<path d="M90.8498 9.06083L89.5904 13.3683C89.3166 14.3174 88.8238 14.7555 87.8747 14.7555C86.9256 14.7555 86.3598 14.3174 86.0677 13.3683L84.2973 7.45465C84.0417 6.5968 84.4615 5.88497 85.3011 5.7207C86.1407 5.55644 86.7065 5.99448 86.9073 6.87058L87.8564 11.2876H87.8929L89.1523 7.18087C89.4444 6.21351 89.9007 5.6842 90.868 5.6842C91.8354 5.6842 92.2917 6.21351 92.5837 7.18087L93.8431 11.2876H93.8796L94.8287 6.87058C95.0295 5.99448 95.5953 5.55644 96.4349 5.7207C97.2745 5.88497 97.6943 6.5968 97.4388 7.45465L95.6683 13.3683C95.3945 14.2627 94.8105 14.7555 93.8613 14.7555C92.9122 14.7555 92.4194 14.3174 92.1457 13.3683L90.8863 9.06083H90.8498Z" fill="var(--fill-0, #FF6161)"/>
<path d="M105.265 6.54205C105.776 7.0166 105.849 7.72843 105.357 8.22124C104.919 8.65928 104.207 8.60453 103.659 8.23949C103.112 7.87445 102.674 7.61892 101.907 7.61892C101.378 7.61892 100.867 7.74668 100.867 8.22124C100.867 8.65928 101.159 8.84181 101.633 8.98782L103.093 9.40762C104.553 9.82742 106.014 10.594 106.014 12.2002C106.014 14.1349 104.334 14.9197 102.199 14.9197C100.483 14.9197 99.0049 14.5182 98.2748 13.5691C97.8185 12.9485 97.7455 12.2367 98.293 11.7804C98.8406 11.3058 99.6619 11.4336 100.191 12.0359C100.702 12.6017 101.451 12.8573 102.126 12.8573C102.801 12.8573 103.367 12.6382 103.367 12.1819C103.367 11.7621 102.874 11.6344 102.381 11.4701L100.812 11.0138C99.4429 10.6123 98.22 9.82742 98.22 8.22124C98.22 6.28652 100.063 5.53818 101.998 5.53818C103.55 5.53818 104.608 5.95798 105.265 6.54205Z" fill="var(--fill-0, #FF6161)"/>
</g>
<path id="M" d="M62.6075 2.43486C63.2078 2.43493 63.6744 2.58166 63.9913 2.88408C64.3085 3.18687 64.4718 3.6421 64.4718 4.25127V13.3138C64.4718 13.6977 64.3574 14.0275 64.1446 14.261C63.9316 14.4948 63.6216 14.6301 63.2364 14.6302C62.8512 14.6302 62.5413 14.4947 62.3282 14.261C62.1154 14.0275 62.0011 13.6978 62.0011 13.3138V6.50322L59.5519 13.6614C59.3703 14.2379 58.875 14.5491 58.253 14.5491C57.6311 14.5491 57.1357 14.2379 56.9542 13.6614L54.506 6.50615V13.3138C54.506 13.6978 54.3907 14.0275 54.1778 14.261C53.9648 14.4946 53.6549 14.6302 53.2696 14.6302C52.8847 14.6301 52.5754 14.4945 52.3624 14.261C52.1496 14.0275 52.0343 13.6978 52.0343 13.3138V4.25127C52.0343 3.6421 52.1976 3.18687 52.5148 2.88408C52.8317 2.58165 53.2983 2.43494 53.8986 2.43486C54.4091 2.43486 54.8346 2.5203 55.173 2.73564C55.5118 2.95131 55.7604 3.29582 55.923 3.80791L58.253 11.1819L60.5831 3.80791C60.7457 3.29583 60.9943 2.95132 61.3331 2.73564C61.6715 2.5203 62.097 2.43486 62.6075 2.43486Z" fill="var(--fill-0, #FF6161)" stroke="var(--stroke-0, #FF6161)" stroke-width="0.0518898"/>
</g>
</g>
</svg>
