<svg preserveAspectRatio="none" width="100%" height="100%" overflow="visible" style="display: block;" viewBox="0 0 22.3989 22.3989" fill="none" xmlns="http://www.w3.org/2000/svg">
<g id="Group 1321319349">
<g id="Vector" filter="url(#filter0_d_0_19)">
<path d="M9.35351 6.92527C10.175 5.45212 10.5854 4.71555 11.1994 4.71555C11.8134 4.71555 12.2239 5.45212 13.0454 6.92527L13.258 7.30653C13.4914 7.72539 13.6081 7.93482 13.7897 8.07293C13.9712 8.21103 14.1982 8.26226 14.652 8.3647L15.0644 8.45807C16.6594 8.81923 17.4562 8.99948 17.6462 9.60962C17.8355 10.2191 17.2922 10.8552 16.2049 12.1267L15.9235 12.4554C15.6149 12.8166 15.4599 12.9975 15.3905 13.2205C15.3211 13.4442 15.3445 13.6854 15.3912 14.1672L15.434 14.6061C15.598 16.303 15.6803 17.1511 15.1837 17.5278C14.687 17.9045 13.9401 17.5609 12.4476 16.8736L12.0605 16.6959C11.6364 16.5001 11.4244 16.4028 11.1994 16.4028C10.9744 16.4028 10.7624 16.5001 10.3384 16.6959L9.95196 16.8736C8.45876 17.5609 7.71183 17.9045 7.21583 17.5284C6.71853 17.1511 6.80087 16.303 6.96491 14.6061L7.0077 14.1678C7.05438 13.6854 7.07773 13.4442 7.0077 13.2212C6.93897 12.9975 6.78401 12.8166 6.47539 12.4561L6.19399 12.1267C5.10667 10.8558 4.56334 10.2198 4.75266 9.60962C4.94199 8.99948 5.74013 8.81858 7.33513 8.45807L7.7475 8.3647C8.20071 8.26226 8.42699 8.21103 8.60918 8.07293C8.79138 7.93482 8.90743 7.72539 9.14085 7.30653L9.35351 6.92527Z" fill="var(--fill-0, #FFE345)"/>
</g>
<path id="Vector_2" d="M10.5779 4.89404C10.7551 4.89407 10.933 4.99388 11.1775 5.31299C11.4222 5.63254 11.6942 6.11862 12.071 6.79443L12.2634 7.14111C12.4664 7.5053 12.5958 7.74409 12.8044 7.90283C12.9622 8.02281 13.1484 8.08368 13.3982 8.14404L13.6697 8.20654L14.0447 8.2915C14.7766 8.45722 15.3007 8.57636 15.6657 8.72021C16.0266 8.86246 16.178 9.00789 16.2361 9.19384C16.2945 9.38182 16.2525 9.59644 16.0388 9.93603C15.8235 10.278 15.4653 10.6985 14.9665 11.2817L14.7107 11.5806C14.4756 11.8557 14.3101 12.0444 14.2195 12.2573L14.1853 12.3511C14.1067 12.6046 14.1368 12.8744 14.1775 13.2944L14.2165 13.6938C14.2917 14.4719 14.3451 15.0322 14.3269 15.4419C14.3086 15.8512 14.2206 16.0479 14.072 16.1606C13.9268 16.2708 13.7278 16.2979 13.3542 16.1909C12.9779 16.0831 12.4866 15.857 11.8015 15.5415H11.8005L11.449 15.3804H11.4499C11.0819 15.2104 10.8398 15.0943 10.5779 15.0942C10.3159 15.0942 10.0739 15.2104 9.70579 15.3804L9.3552 15.5415C8.66973 15.857 8.17791 16.083 7.80149 16.1909C7.4278 16.298 7.22956 16.2704 7.08469 16.1606C6.93567 16.0476 6.84714 15.8512 6.82883 15.4419C6.81967 15.2369 6.82878 14.9943 6.84934 14.7056L6.93919 13.6938L6.97825 13.2954C7.01387 12.9274 7.04183 12.6741 6.99485 12.4468L6.96946 12.3511C6.89088 12.0962 6.71267 11.8943 6.44407 11.5806L6.18919 11.2817H6.18821C5.68954 10.6989 5.33218 10.2789 5.11692 9.93701C4.90311 9.59732 4.86119 9.38224 4.91965 9.19384C4.97738 9.00802 5.12871 8.8626 5.48997 8.72021C5.85517 8.57633 6.37937 8.45687 7.11106 8.2915H7.11204L7.48606 8.20654C7.87996 8.1175 8.14063 8.06252 8.35129 7.90283C8.56062 7.74402 8.68881 7.50454 8.89133 7.14111L9.08469 6.79443C9.46156 6.11862 9.73352 5.63254 9.97825 5.31299C10.2227 4.99389 10.4006 4.89404 10.5779 4.89404Z" fill="var(--fill-0, #FFE867)" stroke="url(#paint0_linear_0_19)" stroke-width="0.42439"/>
</g>
<defs>
<filter id="filter0_d_0_19" x="-3.72529e-09" y="-2.98023e-08" width="22.3989" height="22.3989" filterUnits="userSpaceOnUse" color-interpolation-filters="sRGB">
<feFlood flood-opacity="0" result="BackgroundImageFix"/>
<feColorMatrix in="SourceAlpha" type="matrix" values="0 0 0 0 0 0 0 0 0 0 0 0 0 0 0 0 0 0 127 0" result="hardAlpha"/>
<feOffset/>
<feGaussianBlur stdDeviation="2.35778"/>
<feComposite in2="hardAlpha" operator="out"/>
<feColorMatrix type="matrix" values="0 0 0 0 1 0 0 0 0 0.890196 0 0 0 0 0.270588 0 0 0 0.6 0"/>
<feBlend mode="normal" in2="BackgroundImageFix" result="effect1_dropShadow_0_19"/>
<feBlend mode="normal" in="SourceGraphic" in2="effect1_dropShadow_0_19" result="shape"/>
</filter>
<linearGradient id="paint0_linear_0_19" x1="10.5778" y1="4.68213" x2="10.5778" y2="16.4707" gradientUnits="userSpaceOnUse">
<stop stop-color="white" stop-opacity="0.9"/>
<stop offset="0.2" stop-color="white" stop-opacity="0.32"/>
<stop offset="0.72" stop-color="white" stop-opacity="0.28"/>
<stop offset="0.907407" stop-color="white" stop-opacity="0.58"/>
</linearGradient>
</defs>
</svg>
