<svg preserveAspectRatio="none" width="100%" height="100%" overflow="visible" style="display: block;" viewBox="0 0 312.05 296.822" fill="none" xmlns="http://www.w3.org/2000/svg">
<path id="Vector" opacity="0.04" d="M156.024 0.133496C163.46 0.133496 169.648 4.37999 176.432 12.8054C183.215 21.2296 190.619 33.862 200.483 50.6872L205.592 59.3981C211.205 68.9783 213.994 73.7337 218.327 76.8688C222.66 80.0038 228.078 81.1693 238.992 83.5124L248.897 85.6462C268.051 89.7711 282.427 92.8656 292.584 96.6735C302.742 100.482 308.717 105.017 311.018 112.046C313.311 119.067 311.157 126.227 305.19 135.244C299.97 143.133 291.813 152.468 281.108 164.407L276.366 169.686L269.606 177.197C262.185 185.458 258.487 189.567 256.831 194.631C255.175 199.708 255.73 205.186 256.852 216.205L257.881 226.234C259.851 245.614 261.332 260.162 260.827 270.941C260.322 281.721 257.829 288.77 251.813 293.11C245.798 297.449 238.279 297.627 227.808 294.773C217.337 291.92 203.877 286.026 185.954 278.176L176.655 274.117C166.459 269.638 161.394 267.432 156.024 267.432C151.326 267.432 146.861 269.121 138.988 272.544L135.394 274.117L126.111 278.176C108.18 286.026 94.7166 291.92 84.246 294.775C74.1014 297.541 66.7315 297.464 60.8193 293.518L60.2519 293.125C54.2288 288.778 51.7314 281.725 51.2245 270.943C50.7178 260.163 52.1991 245.614 54.1689 226.234L55.1972 216.219C56.2847 205.531 56.8391 200.056 55.3534 195.122L55.203 194.645C53.5629 189.568 49.8651 185.457 42.4433 177.212L35.6835 169.686C22.6266 155.171 12.8256 144.27 6.8593 135.255C0.892279 126.238 -1.26104 119.075 1.03215 112.046C3.32532 105.017 9.30399 100.478 19.4677 96.6677C29.6304 92.8579 44.0146 89.7637 63.1679 85.6462L73.0732 83.5124C83.9717 81.1693 89.3749 80.0032 93.7236 76.8679C98.0717 73.7328 100.845 68.9782 106.458 59.3981L111.566 50.6872C121.431 33.8619 128.835 21.2296 135.618 12.8054C142.402 4.38017 148.588 0.133674 156.024 0.133496Z" fill="var(--fill-0, white)" stroke="url(#paint0_linear_0_4)" stroke-width="0.267285"/>
<defs>
<linearGradient id="paint0_linear_0_4" x1="100.16" y1="62.9985" x2="183.45" y2="304.039" gradientUnits="userSpaceOnUse">
<stop stop-color="white"/>
<stop offset="1" stop-color="white" stop-opacity="0.55"/>
</linearGradient>
</defs>
</svg>
